<?xml version="1.0" encoding="UTF-8" standalone="no"?>
<!DOCTYPE svg PUBLIC "-//W3C//DTD SVG 1.1//EN"
 "http://www.w3.org/Graphics/SVG/1.1/DTD/svg11.dtd">
<!-- Generated by graphviz version 13.1.2 (20250808.2320)
 -->
<!-- Title: architecture Pages: 1 -->
<svg width="508pt" height="625pt"
 viewBox="0.00 0.00 508.00 625.00" xmlns="http://www.w3.org/2000/svg" xmlns:xlink="http://www.w3.org/1999/xlink">
<g id="graph0" class="graph" transform="scale(1 1) rotate(0) translate(4 621.25)">
<title>architecture</title>
<polygon fill="white" stroke="none" points="-4,4 -4,-621.25 504,-621.25 504,4 -4,4"/>
<g id="clust1" class="cluster">
<title>cluster_user</title>
<path fill="none" stroke="#999999" stroke-dasharray="5,2" d="M166,-531.5C166,-531.5 336,-531.5 336,-531.5 342,-531.5 348,-537.5 348,-543.5 348,-543.5 348,-597.25 348,-597.25 348,-603.25 342,-609.25 336,-609.25 336,-609.25 166,-609.25 166,-609.25 160,-609.25 154,-603.25 154,-597.25 154,-597.25 154,-543.5 154,-543.5 154,-537.5 160,-531.5 166,-531.5"/>
<text xml:space="preserve" text-anchor="middle" x="186.38" y="-595.75" font-family="sans-serif" font-size="10.00" fill="#666666">User Code</text>
</g>
<g id="clust2" class="cluster">
<title>cluster_oxivgl</title>
<path fill="#f8f9fa" stroke="#4a86c8" d="M134,-244.5C134,-244.5 360,-244.5 360,-244.5 366,-244.5 372,-250.5 372,-256.5 372,-256.5 372,-511.5 372,-511.5 372,-517.5 366,-523.5 360,-523.5 360,-523.5 134,-523.5 134,-523.5 128,-523.5 122,-517.5 122,-511.5 122,-511.5 122,-256.5 122,-256.5 122,-250.5 128,-244.5 134,-244.5"/>
<text xml:space="preserve" text-anchor="middle" x="146.12" y="-508.1" font-family="sans-serif" font-size="12.00" fill="#4a86c8">oxivgl</text>
</g>
<g id="clust3" class="cluster">
<title>cluster_ffi</title>
<path fill="none" stroke="#999999" stroke-dasharray="5,2" d="M131,-90.25C131,-90.25 369,-90.25 369,-90.25 375,-90.25 381,-96.25 381,-102.25 381,-102.25 381,-224.5 381,-224.5 381,-230.5 375,-236.5 369,-236.5 369,-236.5 131,-236.5 131,-236.5 125,-236.5 119,-230.5 119,-224.5 119,-224.5 119,-102.25 119,-102.25 119,-96.25 125,-90.25 131,-90.25"/>
<text xml:space="preserve" text-anchor="middle" x="141.25" y="-223" font-family="sans-serif" font-size="10.00" fill="#666666">C / FFI</text>
</g>
<g id="clust4" class="cluster">
<title>cluster_hw</title>
<path fill="none" stroke="#999999" stroke-dasharray="5,2" d="M20,-8C20,-8 480,-8 480,-8 486,-8 492,-14 492,-20 492,-20 492,-70.25 492,-70.25 492,-76.25 486,-82.25 480,-82.25 480,-82.25 20,-82.25 20,-82.25 14,-82.25 8,-76.25 8,-70.25 8,-70.25 8,-20 8,-20 8,-14 14,-8 20,-8"/>
<text xml:space="preserve" text-anchor="middle" x="53.5" y="-68.75" font-family="sans-serif" font-size="10.00" fill="#666666">Hardware / Host</text>
</g>
<!-- app -->
<g id="node1" class="node">
<title>app</title>
<path fill="#fff3cd" stroke="#d4a017" stroke-width="1.5" d="M327.62,-579C327.62,-579 174.38,-579 174.38,-579 168.38,-579 162.38,-573 162.38,-567 162.38,-567 162.38,-551.5 162.38,-551.5 162.38,-545.5 168.38,-539.5 174.38,-539.5 174.38,-539.5 327.62,-539.5 327.62,-539.5 333.62,-539.5 339.62,-545.5 339.62,-551.5 339.62,-551.5 339.62,-567 339.62,-567 339.62,-573 333.62,-579 327.62,-579"/>
<text xml:space="preserve" text-anchor="middle" x="251" y="-564.55" font-family="sans-serif" font-size="11.00">examples/*.rs · consumer crate</text>
<text xml:space="preserve" text-anchor="middle" x="251" y="-548.8" font-family="sans-serif" font-size="11.00">(implements View)</text>
</g>
<!-- view -->
<g id="node2" class="node">
<title>view</title>
<path fill="#d4e6fc" stroke="#4a86c8" stroke-width="1.5" d="M338.12,-490.25C338.12,-490.25 163.88,-490.25 163.88,-490.25 157.88,-490.25 151.88,-484.25 151.88,-478.25 151.88,-478.25 151.88,-462.75 151.88,-462.75 151.88,-456.75 157.88,-450.75 163.88,-450.75 163.88,-450.75 338.12,-450.75 338.12,-450.75 344.12,-450.75 350.12,-456.75 350.12,-462.75 350.12,-462.75 350.12,-478.25 350.12,-478.25 350.12,-484.25 344.12,-490.25 338.12,-490.25"/>
<text xml:space="preserve" text-anchor="middle" x="251" y="-475.8" font-family="sans-serif" font-size="11.00">view</text>
<text xml:space="preserve" text-anchor="middle" x="251" y="-460.05" font-family="sans-serif" font-size="11.00">View trait · run_lvgl · event dispatch</text>
</g>
<!-- app&#45;&gt;view -->
<g id="edge1" class="edge">
<title>app&#45;&gt;view</title>
<path fill="none" stroke="#666666" stroke-width="1.2" d="M251,-539C251,-528.29 251,-514.71 251,-502.54"/>
<polygon fill="#666666" stroke="#666666" stroke-width="1.2" points="254.5,-502.82 251,-492.82 247.5,-502.82 254.5,-502.82"/>
</g>
<!-- widgets -->
<g id="node3" class="node">
<title>widgets</title>
<path fill="#e8f0fe" stroke="#4a86c8" stroke-width="1.5" d="M332.38,-414.75C332.38,-414.75 141.62,-414.75 141.62,-414.75 135.62,-414.75 129.62,-408.75 129.62,-402.75 129.62,-402.75 129.62,-355.75 129.62,-355.75 129.62,-349.75 135.62,-343.75 141.62,-343.75 141.62,-343.75 332.38,-343.75 332.38,-343.75 338.38,-343.75 344.38,-349.75 344.38,-355.75 344.38,-355.75 344.38,-402.75 344.38,-402.75 344.38,-408.75 338.38,-414.75 332.38,-414.75"/>
<text xml:space="preserve" text-anchor="middle" x="237" y="-400.3" font-family="sans-serif" font-size="11.00">widgets · style · anim</text>
<text xml:space="preserve" text-anchor="middle" x="237" y="-384.55" font-family="sans-serif" font-size="11.00">Obj · Label · Button · Arc · Bar · Scale …</text>
<text xml:space="preserve" text-anchor="middle" x="237" y="-368.8" font-family="sans-serif" font-size="11.00">StyleBuilder → Style · GradDsc · Theme</text>
<text xml:space="preserve" text-anchor="middle" x="237" y="-353.05" font-family="sans-serif" font-size="11.00">Anim · AnimHandle · Timer · Event</text>
</g>
<!-- view&#45;&gt;widgets -->
<g id="edge2" class="edge">
<title>view&#45;&gt;widgets</title>
<path fill="none" stroke="#666666" stroke-width="1.2" d="M247.96,-450.13C246.88,-443.23 245.61,-435.13 244.32,-426.94"/>
<polygon fill="#666666" stroke="#666666" stroke-width="1.2" points="247.8,-426.54 242.8,-417.2 240.89,-427.63 247.8,-426.54"/>
</g>
<!-- driver -->
<g id="node4" class="node">
<title>driver</title>
<path fill="#e8f0fe" stroke="#4a86c8" stroke-width="1.5" d="M339,-307.75C339,-307.75 161,-307.75 161,-307.75 155,-307.75 149,-301.75 149,-295.75 149,-295.75 149,-264.5 149,-264.5 149,-258.5 155,-252.5 161,-252.5 161,-252.5 339,-252.5 339,-252.5 345,-252.5 351,-258.5 351,-264.5 351,-264.5 351,-295.75 351,-295.75 351,-301.75 345,-307.75 339,-307.75"/>
<text xml:space="preserve" text-anchor="middle" x="250" y="-293.3" font-family="sans-serif" font-size="11.00">driver · display · fonts</text>
<text xml:space="preserve" text-anchor="middle" x="250" y="-277.55" font-family="sans-serif" font-size="11.00">LvglDriver · SdlBuilder · LvglBuffers</text>
<text xml:space="preserve" text-anchor="middle" x="250" y="-261.8" font-family="sans-serif" font-size="11.00">DMA flush pipeline · Snapshot (host)</text>
</g>
<!-- view&#45;&gt;driver -->
<g id="edge3" class="edge">
<title>view&#45;&gt;driver</title>
<path fill="none" stroke="#666666" stroke-width="1.2" d="M312.06,-450.01C328.18,-441.77 343.66,-430.36 353,-414.75 369.2,-387.67 368.47,-371.26 353,-343.75 346.61,-332.39 337.24,-322.86 326.71,-314.92"/>
<polygon fill="#666666" stroke="#666666" stroke-width="1.2" points="328.92,-312.2 318.7,-309.4 324.94,-317.96 328.92,-312.2"/>
</g>
<!-- widgets&#45;&gt;driver -->
<g id="edge4" class="edge">
<title>widgets&#45;&gt;driver</title>
<path fill="none" stroke="#666666" stroke-width="1.2" stroke-dasharray="5,2" d="M241.69,-343.19C242.71,-335.63 243.78,-327.59 244.81,-319.9"/>
<polygon fill="#666666" stroke="#666666" stroke-width="1.2" points="248.28,-320.39 246.13,-310.01 241.34,-319.46 248.28,-320.39"/>
</g>
<!-- sys -->
<g id="node5" class="node">
<title>sys</title>
<path fill="#f0f0f0" stroke="#888888" stroke-width="1.5" d="M344.25,-206.25C344.25,-206.25 155.75,-206.25 155.75,-206.25 149.75,-206.25 143.75,-200.25 143.75,-194.25 143.75,-194.25 143.75,-182.25 143.75,-182.25 143.75,-176.25 149.75,-170.25 155.75,-170.25 155.75,-170.25 344.25,-170.25 344.25,-170.25 350.25,-170.25 356.25,-176.25 356.25,-182.25 356.25,-182.25 356.25,-194.25 356.25,-194.25 356.25,-200.25 350.25,-206.25 344.25,-206.25"/>
<text xml:space="preserve" text-anchor="middle" x="250" y="-185.68" font-family="sans-serif" font-size="11.00">lvgl_rust_sys — raw LVGL 9.3 bindings</text>
</g>
<!-- driver&#45;&gt;sys -->
<g id="edge5" class="edge">
<title>driver&#45;&gt;sys</title>
<path fill="none" stroke="#666666" stroke-width="1.2" d="M250,-252.16C250,-241.49 250,-229.2 250,-218.33"/>
<polygon fill="#666666" stroke="#666666" stroke-width="1.2" points="253.5,-218.65 250,-208.65 246.5,-218.65 253.5,-218.65"/>
</g>
<!-- lvgl_c -->
<g id="node6" class="node">
<title>lvgl_c</title>
<path fill="#f0f0f0" stroke="#888888" stroke-width="1.5" d="M361.12,-134.25C361.12,-134.25 138.88,-134.25 138.88,-134.25 132.88,-134.25 126.88,-128.25 126.88,-122.25 126.88,-122.25 126.88,-110.25 126.88,-110.25 126.88,-104.25 132.88,-98.25 138.88,-98.25 138.88,-98.25 361.12,-98.25 361.12,-98.25 367.12,-98.25 373.12,-104.25 373.12,-110.25 373.12,-110.25 373.12,-122.25 373.12,-122.25 373.12,-128.25 367.12,-134.25 361.12,-134.25"/>
<text xml:space="preserve" text-anchor="middle" x="250" y="-113.67" font-family="sans-serif" font-size="11.00">LVGL C library — widgets · layout · rendering</text>
</g>
<!-- sys&#45;&gt;lvgl_c -->
<g id="edge6" class="edge">
<title>sys&#45;&gt;lvgl_c</title>
<path fill="none" stroke="#666666" stroke-width="1.2" d="M250,-169.59C250,-162.57 250,-154.31 250,-146.45"/>
<polygon fill="#666666" stroke="#666666" stroke-width="1.2" points="253.5,-146.48 250,-136.48 246.5,-146.48 253.5,-146.48"/>
</g>
<!-- esp -->
<g id="node7" class="node">
<title>esp</title>
<path fill="#e8f5e9" stroke="#4caf50" stroke-width="1.5" d="M148,-52C148,-52 28,-52 28,-52 22,-52 16,-46 16,-40 16,-40 16,-28 16,-28 16,-22 22,-16 28,-16 28,-16 148,-16 148,-16 154,-16 160,-22 160,-28 160,-28 160,-40 160,-40 160,-46 154,-52 148,-52"/>
<text xml:space="preserve" text-anchor="middle" x="88" y="-31.43" font-family="sans-serif" font-size="11.00">ESP32 SPI TFT</text>
</g>
<!-- lvgl_c&#45;&gt;esp -->
<g id="edge7" class="edge">
<title>lvgl_c&#45;&gt;esp</title>
<path fill="none" stroke="#666666" stroke-width="1.2" d="M203.24,-97.51C191.9,-92.85 179.9,-87.62 169,-82.25 154.57,-75.14 139.21,-66.48 125.79,-58.53"/>
<polygon fill="#666666" stroke="#666666" stroke-width="1.2" points="127.88,-55.7 117.51,-53.56 124.28,-61.71 127.88,-55.7"/>
</g>
<!-- sdl -->
<g id="node8" class="node">
<title>sdl</title>
<path fill="#e8f5e9" stroke="#4caf50" stroke-width="1.5" d="M310,-52C310,-52 190,-52 190,-52 184,-52 178,-46 178,-40 178,-40 178,-28 178,-28 178,-22 184,-16 190,-16 190,-16 310,-16 310,-16 316,-16 322,-22 322,-28 322,-28 322,-40 322,-40 322,-46 316,-52 310,-52"/>
<text xml:space="preserve" text-anchor="middle" x="250" y="-31.43" font-family="sans-serif" font-size="11.00">SDL2 window</text>
</g>
<!-- lvgl_c&#45;&gt;sdl -->
<g id="edge8" class="edge">
<title>lvgl_c&#45;&gt;sdl</title>
<path fill="none" stroke="#666666" stroke-width="1.2" d="M250,-97.84C250,-88.02 250,-75.5 250,-64.22"/>
<polygon fill="#666666" stroke="#666666" stroke-width="1.2" points="253.5,-64.47 250,-54.47 246.5,-64.47 253.5,-64.47"/>
</g>
<!-- dummy -->
<g id="node9" class="node">
<title>dummy</title>
<path fill="#e8f5e9" stroke="#4caf50" stroke-width="1.5" d="M472,-52C472,-52 352,-52 352,-52 346,-52 340,-46 340,-40 340,-40 340,-28 340,-28 340,-22 346,-16 352,-16 352,-16 472,-16 472,-16 478,-16 484,-22 484,-28 484,-28 484,-40 484,-40 484,-46 478,-52 472,-52"/>
<text xml:space="preserve" text-anchor="middle" x="412" y="-31.43" font-family="sans-serif" font-size="11.00">SDL2 dummy (CI)</text>
</g>
<!-- lvgl_c&#45;&gt;dummy -->
<g id="edge9" class="edge">
<title>lvgl_c&#45;&gt;dummy</title>
<path fill="none" stroke="#666666" stroke-width="1.2" d="M296.76,-97.51C308.1,-92.85 320.1,-87.62 331,-82.25 345.43,-75.14 360.79,-66.48 374.21,-58.53"/>
<polygon fill="#666666" stroke="#666666" stroke-width="1.2" points="375.72,-61.71 382.49,-53.56 372.12,-55.7 375.72,-61.71"/>
</g>
</g>
</svg>
