<?xml version="1.0" encoding="UTF-8" standalone="no"?>
<!DOCTYPE svg PUBLIC "-//W3C//DTD SVG 1.1//EN"
 "http://www.w3.org/Graphics/SVG/1.1/DTD/svg11.dtd">
<!-- Generated by graphviz version 13.1.2 (20250808.2320)
 -->
<!-- Title: architecture Pages: 1 -->
<svg width="406pt" height="576pt"
 viewBox="0.00 0.00 406.00 576.00" xmlns="http://www.w3.org/2000/svg" xmlns:xlink="http://www.w3.org/1999/xlink">
<g id="graph0" class="graph" transform="scale(1 1) rotate(0) translate(4 572)">
<title>architecture</title>
<polygon fill="white" stroke="none" points="-4,4 -4,-572 402,-572 402,4 -4,4"/>
<g id="clust1" class="cluster">
<title>cluster_user</title>
<path fill="none" stroke="#999999" stroke-dasharray="5,2" d="M152,-466.5C152,-466.5 256,-466.5 256,-466.5 262,-466.5 268,-472.5 268,-478.5 268,-478.5 268,-548 268,-548 268,-554 262,-560 256,-560 256,-560 152,-560 152,-560 146,-560 140,-554 140,-548 140,-548 140,-478.5 140,-478.5 140,-472.5 146,-466.5 152,-466.5"/>
<text xml:space="preserve" text-anchor="middle" x="172.38" y="-546.5" font-family="sans-serif" font-size="10.00" fill="#666666">User Code</text>
</g>
<g id="clust2" class="cluster">
<title>cluster_oxivgl</title>
<path fill="#f8f9fa" stroke="#4a86c8" d="M77,-255C77,-255 378,-255 378,-255 384,-255 390,-261 390,-267 390,-267 390,-446.5 390,-446.5 390,-452.5 384,-458.5 378,-458.5 378,-458.5 77,-458.5 77,-458.5 71,-458.5 65,-452.5 65,-446.5 65,-446.5 65,-267 65,-267 65,-261 71,-255 77,-255"/>
<text xml:space="preserve" text-anchor="middle" x="89.12" y="-443.1" font-family="sans-serif" font-size="12.00" fill="#4a86c8">oxivgl</text>
</g>
<g id="clust3" class="cluster">
<title>cluster_ffi</title>
<path fill="none" stroke="#999999" stroke-dasharray="5,2" d="M129,-93.75C129,-93.75 279,-93.75 279,-93.75 285,-93.75 291,-99.75 291,-105.75 291,-105.75 291,-235 291,-235 291,-241 285,-247 279,-247 279,-247 129,-247 129,-247 123,-247 117,-241 117,-235 117,-235 117,-105.75 117,-105.75 117,-99.75 123,-93.75 129,-93.75"/>
<text xml:space="preserve" text-anchor="middle" x="139.25" y="-233.5" font-family="sans-serif" font-size="10.00" fill="#666666">C / FFI</text>
</g>
<g id="clust4" class="cluster">
<title>cluster_hw</title>
<path fill="none" stroke="#999999" stroke-dasharray="5,2" d="M20,-8C20,-8 358,-8 358,-8 364,-8 370,-14 370,-20 370,-20 370,-73.75 370,-73.75 370,-79.75 364,-85.75 358,-85.75 358,-85.75 20,-85.75 20,-85.75 14,-85.75 8,-79.75 8,-73.75 8,-73.75 8,-20 8,-20 8,-14 14,-8 20,-8"/>
<text xml:space="preserve" text-anchor="middle" x="53.5" y="-72.25" font-family="sans-serif" font-size="10.00" fill="#666666">Hardware / Host</text>
</g>
<!-- app -->
<g id="node1" class="node">
<title>app</title>
<path fill="#fff3cd" stroke="#d4a017" stroke-width="1.5" d="M247.62,-529.75C247.62,-529.75 160.38,-529.75 160.38,-529.75 154.38,-529.75 148.38,-523.75 148.38,-517.75 148.38,-517.75 148.38,-486.5 148.38,-486.5 148.38,-480.5 154.38,-474.5 160.38,-474.5 160.38,-474.5 247.62,-474.5 247.62,-474.5 253.62,-474.5 259.62,-480.5 259.62,-486.5 259.62,-486.5 259.62,-517.75 259.62,-517.75 259.62,-523.75 253.62,-529.75 247.62,-529.75"/>
<text xml:space="preserve" text-anchor="middle" x="204" y="-515.3" font-family="sans-serif" font-size="11.00">examples/*.rs</text>
<text xml:space="preserve" text-anchor="middle" x="204" y="-499.55" font-family="sans-serif" font-size="11.00">consumer crate</text>
<text xml:space="preserve" text-anchor="middle" x="204" y="-483.8" font-family="sans-serif" font-size="11.00">(implements View)</text>
</g>
<!-- view -->
<g id="node2" class="node">
<title>view</title>
<path fill="#d4e6fc" stroke="#4a86c8" stroke-width="1.5" d="M249.5,-425.25C249.5,-425.25 158.5,-425.25 158.5,-425.25 152.5,-425.25 146.5,-419.25 146.5,-413.25 146.5,-413.25 146.5,-382 146.5,-382 146.5,-376 152.5,-370 158.5,-370 158.5,-370 249.5,-370 249.5,-370 255.5,-370 261.5,-376 261.5,-382 261.5,-382 261.5,-413.25 261.5,-413.25 261.5,-419.25 255.5,-425.25 249.5,-425.25"/>
<text xml:space="preserve" text-anchor="middle" x="204" y="-410.8" font-family="sans-serif" font-size="11.00">view</text>
<text xml:space="preserve" text-anchor="middle" x="204" y="-395.05" font-family="sans-serif" font-size="11.00">View trait · run_lvgl</text>
<text xml:space="preserve" text-anchor="middle" x="204" y="-379.3" font-family="sans-serif" font-size="11.00">event dispatch</text>
</g>
<!-- app&#45;&gt;view -->
<g id="edge1" class="edge">
<title>app&#45;&gt;view</title>
<path fill="none" stroke="#666666" stroke-width="1.2" d="M204,-473.93C204,-462.81 204,-449.73 204,-437.63"/>
<polygon fill="#666666" stroke="#666666" stroke-width="1.2" points="207.5,-437.77 204,-427.77 200.5,-437.77 207.5,-437.77"/>
</g>
<!-- driver -->
<g id="node3" class="node">
<title>driver</title>
<path fill="#e8f0fe" stroke="#4a86c8" stroke-width="1.5" d="M129.25,-326.12C129.25,-326.12 84.75,-326.12 84.75,-326.12 78.75,-326.12 72.75,-320.12 72.75,-314.12 72.75,-314.12 72.75,-282.88 72.75,-282.88 72.75,-276.88 78.75,-270.88 84.75,-270.88 84.75,-270.88 129.25,-270.88 129.25,-270.88 135.25,-270.88 141.25,-276.88 141.25,-282.88 141.25,-282.88 141.25,-314.12 141.25,-314.12 141.25,-320.12 135.25,-326.12 129.25,-326.12"/>
<text xml:space="preserve" text-anchor="middle" x="107" y="-311.68" font-family="sans-serif" font-size="11.00">driver</text>
<text xml:space="preserve" text-anchor="middle" x="107" y="-295.93" font-family="sans-serif" font-size="11.00">LvglDriver</text>
<text xml:space="preserve" text-anchor="middle" x="107" y="-280.18" font-family="sans-serif" font-size="11.00">tick · log</text>
</g>
<!-- view&#45;&gt;driver -->
<g id="edge2" class="edge">
<title>view&#45;&gt;driver</title>
<path fill="none" stroke="#666666" stroke-width="1.2" d="M176.72,-369.31C165.99,-358.57 153.53,-346.09 142.14,-334.69"/>
<polygon fill="#666666" stroke="#666666" stroke-width="1.2" points="144.9,-332.5 135.36,-327.89 139.95,-337.44 144.9,-332.5"/>
</g>
<!-- display -->
<g id="node4" class="node">
<title>display</title>
<path fill="#e8f0fe" stroke="#4a86c8" stroke-width="1.5" d="M236.75,-326.12C236.75,-326.12 171.25,-326.12 171.25,-326.12 165.25,-326.12 159.25,-320.12 159.25,-314.12 159.25,-314.12 159.25,-282.88 159.25,-282.88 159.25,-276.88 165.25,-270.88 171.25,-270.88 171.25,-270.88 236.75,-270.88 236.75,-270.88 242.75,-270.88 248.75,-276.88 248.75,-282.88 248.75,-282.88 248.75,-314.12 248.75,-314.12 248.75,-320.12 242.75,-326.12 236.75,-326.12"/>
<text xml:space="preserve" text-anchor="middle" x="204" y="-311.68" font-family="sans-serif" font-size="11.00">display</text>
<text xml:space="preserve" text-anchor="middle" x="204" y="-295.93" font-family="sans-serif" font-size="11.00">DisplayOutput</text>
<text xml:space="preserve" text-anchor="middle" x="204" y="-280.18" font-family="sans-serif" font-size="11.00">DMA flush</text>
</g>
<!-- view&#45;&gt;display -->
<g id="edge3" class="edge">
<title>view&#45;&gt;display</title>
<path fill="none" stroke="#666666" stroke-width="1.2" d="M204,-369.31C204,-359.71 204,-348.74 204,-338.37"/>
<polygon fill="#666666" stroke="#666666" stroke-width="1.2" points="207.5,-338.42 204,-328.42 200.5,-338.42 207.5,-338.42"/>
</g>
<!-- widgets -->
<g id="node5" class="node">
<title>widgets</title>
<path fill="#e8f0fe" stroke="#4a86c8" stroke-width="1.5" d="M369.5,-334C369.5,-334 278.5,-334 278.5,-334 272.5,-334 266.5,-328 266.5,-322 266.5,-322 266.5,-275 266.5,-275 266.5,-269 272.5,-263 278.5,-263 278.5,-263 369.5,-263 369.5,-263 375.5,-263 381.5,-269 381.5,-275 381.5,-275 381.5,-322 381.5,-322 381.5,-328 375.5,-334 369.5,-334"/>
<text xml:space="preserve" text-anchor="middle" x="324" y="-319.55" font-family="sans-serif" font-size="11.00">widgets</text>
<text xml:space="preserve" text-anchor="middle" x="324" y="-303.8" font-family="sans-serif" font-size="11.00">Obj · Label · Button</text>
<text xml:space="preserve" text-anchor="middle" x="324" y="-288.05" font-family="sans-serif" font-size="11.00">Arc · Bar · Style</text>
<text xml:space="preserve" text-anchor="middle" x="324" y="-272.3" font-family="sans-serif" font-size="11.00">Anim · GradDsc …</text>
</g>
<!-- view&#45;&gt;widgets -->
<g id="edge4" class="edge">
<title>view&#45;&gt;widgets</title>
<path fill="none" stroke="#666666" stroke-width="1.2" d="M237.75,-369.31C248.25,-360.81 260.09,-351.23 271.55,-341.95"/>
<polygon fill="#666666" stroke="#666666" stroke-width="1.2" points="273.65,-344.75 279.22,-335.74 269.25,-339.31 273.65,-344.75"/>
</g>
<!-- sys -->
<g id="node7" class="node">
<title>sys</title>
<path fill="#f0f0f0" stroke="#888888" stroke-width="1.5" d="M257.38,-216.75C257.38,-216.75 150.62,-216.75 150.62,-216.75 144.62,-216.75 138.62,-210.75 138.62,-204.75 138.62,-204.75 138.62,-189.25 138.62,-189.25 138.62,-183.25 144.62,-177.25 150.62,-177.25 150.62,-177.25 257.38,-177.25 257.38,-177.25 263.38,-177.25 269.38,-183.25 269.38,-189.25 269.38,-189.25 269.38,-204.75 269.38,-204.75 269.38,-210.75 263.38,-216.75 257.38,-216.75"/>
<text xml:space="preserve" text-anchor="middle" x="204" y="-202.3" font-family="sans-serif" font-size="11.00">oxivgl-sys</text>
<text xml:space="preserve" text-anchor="middle" x="204" y="-186.55" font-family="sans-serif" font-size="11.00">raw LVGL 9.5 bindings</text>
</g>
<!-- driver&#45;&gt;sys -->
<g id="edge6" class="edge">
<title>driver&#45;&gt;sys</title>
<path fill="none" stroke="#666666" stroke-width="1.2" d="M133.51,-270.31C147.07,-256.4 163.55,-239.5 177.16,-225.53"/>
<polygon fill="#666666" stroke="#666666" stroke-width="1.2" points="179.47,-228.18 183.94,-218.57 174.46,-223.29 179.47,-228.18"/>
</g>
<!-- display&#45;&gt;sys -->
<g id="edge7" class="edge">
<title>display&#45;&gt;sys</title>
<path fill="none" stroke="#666666" stroke-width="1.2" d="M204,-270.31C204,-257.45 204,-242.03 204,-228.74"/>
<polygon fill="#666666" stroke="#666666" stroke-width="1.2" points="207.5,-229.09 204,-219.09 200.5,-229.09 207.5,-229.09"/>
</g>
<!-- fonts -->
<g id="node6" class="node">
<title>fonts</title>
<path fill="#e8f0fe" stroke="#4a86c8" stroke-width="1.5" d="M344.5,-417.38C344.5,-417.38 295.5,-417.38 295.5,-417.38 289.5,-417.38 283.5,-411.38 283.5,-405.38 283.5,-405.38 283.5,-389.88 283.5,-389.88 283.5,-383.88 289.5,-377.88 295.5,-377.88 295.5,-377.88 344.5,-377.88 344.5,-377.88 350.5,-377.88 356.5,-383.88 356.5,-389.88 356.5,-389.88 356.5,-405.38 356.5,-405.38 356.5,-411.38 350.5,-417.38 344.5,-417.38"/>
<text xml:space="preserve" text-anchor="middle" x="320" y="-402.93" font-family="sans-serif" font-size="11.00">fonts</text>
<text xml:space="preserve" text-anchor="middle" x="320" y="-387.18" font-family="sans-serif" font-size="11.00">Montserrat</text>
</g>
<!-- widgets&#45;&gt;fonts -->
<g id="edge5" class="edge">
<title>widgets&#45;&gt;fonts</title>
<path fill="none" stroke="#666666" stroke-width="1.2" stroke-dasharray="5,2" d="M322.56,-334.37C322.14,-344.69 321.68,-355.9 321.26,-365.93"/>
<polygon fill="#666666" stroke="#666666" stroke-width="1.2" points="317.78,-365.49 320.87,-375.62 324.77,-365.77 317.78,-365.49"/>
</g>
<!-- widgets&#45;&gt;sys -->
<g id="edge8" class="edge">
<title>widgets&#45;&gt;sys</title>
<path fill="none" stroke="#666666" stroke-width="1.2" d="M281.69,-262.42C266.75,-250.03 250.19,-236.3 236.22,-224.72"/>
<polygon fill="#666666" stroke="#666666" stroke-width="1.2" points="238.78,-222.29 228.85,-218.61 234.31,-227.68 238.78,-222.29"/>
</g>
<!-- lvgl_c -->
<g id="node8" class="node">
<title>lvgl_c</title>
<path fill="#f0f0f0" stroke="#888888" stroke-width="1.5" d="M270.5,-141.25C270.5,-141.25 137.5,-141.25 137.5,-141.25 131.5,-141.25 125.5,-135.25 125.5,-129.25 125.5,-129.25 125.5,-113.75 125.5,-113.75 125.5,-107.75 131.5,-101.75 137.5,-101.75 137.5,-101.75 270.5,-101.75 270.5,-101.75 276.5,-101.75 282.5,-107.75 282.5,-113.75 282.5,-113.75 282.5,-129.25 282.5,-129.25 282.5,-135.25 276.5,-141.25 270.5,-141.25"/>
<text xml:space="preserve" text-anchor="middle" x="204" y="-126.8" font-family="sans-serif" font-size="11.00">LVGL C library</text>
<text xml:space="preserve" text-anchor="middle" x="204" y="-111.05" font-family="sans-serif" font-size="11.00">widgets · layout · rendering</text>
</g>
<!-- sys&#45;&gt;lvgl_c -->
<g id="edge9" class="edge">
<title>sys&#45;&gt;lvgl_c</title>
<path fill="none" stroke="#666666" stroke-width="1.2" d="M204,-176.69C204,-169.65 204,-161.51 204,-153.71"/>
<polygon fill="#666666" stroke="#666666" stroke-width="1.2" points="207.5,-153.75 204,-143.75 200.5,-153.75 207.5,-153.75"/>
</g>
<!-- esp -->
<g id="node9" class="node">
<title>esp</title>
<path fill="#e8f5e9" stroke="#4caf50" stroke-width="1.5" d="M119.5,-55.5C119.5,-55.5 28.5,-55.5 28.5,-55.5 22.5,-55.5 16.5,-49.5 16.5,-43.5 16.5,-43.5 16.5,-28 16.5,-28 16.5,-22 22.5,-16 28.5,-16 28.5,-16 119.5,-16 119.5,-16 125.5,-16 131.5,-22 131.5,-28 131.5,-28 131.5,-43.5 131.5,-43.5 131.5,-49.5 125.5,-55.5 119.5,-55.5"/>
<text xml:space="preserve" text-anchor="middle" x="74" y="-41.05" font-family="sans-serif" font-size="11.00">ESP32 SPI TFT</text>
<text xml:space="preserve" text-anchor="middle" x="74" y="-25.3" font-family="sans-serif" font-size="11.00">DMA double&#45;buffer</text>
</g>
<!-- lvgl_c&#45;&gt;esp -->
<g id="edge10" class="edge">
<title>lvgl_c&#45;&gt;esp</title>
<path fill="none" stroke="#666666" stroke-width="1.2" d="M166.9,-101.06C158.27,-96.26 149.21,-90.99 141,-85.75 130.14,-78.82 118.69,-70.75 108.39,-63.19"/>
<polygon fill="#666666" stroke="#666666" stroke-width="1.2" points="110.49,-60.39 100.38,-57.23 106.31,-66.01 110.49,-60.39"/>
</g>
<!-- sdl -->
<g id="node10" class="node">
<title>sdl</title>
<path fill="#e8f5e9" stroke="#4caf50" stroke-width="1.5" d="M246.5,-55.5C246.5,-55.5 161.5,-55.5 161.5,-55.5 155.5,-55.5 149.5,-49.5 149.5,-43.5 149.5,-43.5 149.5,-28 149.5,-28 149.5,-22 155.5,-16 161.5,-16 161.5,-16 246.5,-16 246.5,-16 252.5,-16 258.5,-22 258.5,-28 258.5,-28 258.5,-43.5 258.5,-43.5 258.5,-49.5 252.5,-55.5 246.5,-55.5"/>
<text xml:space="preserve" text-anchor="middle" x="204" y="-41.05" font-family="sans-serif" font-size="11.00">SDL2 window</text>
<text xml:space="preserve" text-anchor="middle" x="204" y="-25.3" font-family="sans-serif" font-size="11.00">host development</text>
</g>
<!-- lvgl_c&#45;&gt;sdl -->
<g id="edge11" class="edge">
<title>lvgl_c&#45;&gt;sdl</title>
<path fill="none" stroke="#666666" stroke-width="1.2" d="M204,-101.08C204,-91.14 204,-78.81 204,-67.61"/>
<polygon fill="#666666" stroke="#666666" stroke-width="1.2" points="207.5,-67.89 204,-57.89 200.5,-67.89 207.5,-67.89"/>
</g>
<!-- dummy -->
<g id="node11" class="node">
<title>dummy</title>
<path fill="#e8f5e9" stroke="#4caf50" stroke-width="1.5" d="M349.5,-55.5C349.5,-55.5 288.5,-55.5 288.5,-55.5 282.5,-55.5 276.5,-49.5 276.5,-43.5 276.5,-43.5 276.5,-28 276.5,-28 276.5,-22 282.5,-16 288.5,-16 288.5,-16 349.5,-16 349.5,-16 355.5,-16 361.5,-22 361.5,-28 361.5,-28 361.5,-43.5 361.5,-43.5 361.5,-49.5 355.5,-55.5 349.5,-55.5"/>
<text xml:space="preserve" text-anchor="middle" x="319" y="-41.05" font-family="sans-serif" font-size="11.00">SDL2 dummy</text>
<text xml:space="preserve" text-anchor="middle" x="319" y="-25.3" font-family="sans-serif" font-size="11.00">tests · CI</text>
</g>
<!-- lvgl_c&#45;&gt;dummy -->
<g id="edge12" class="edge">
<title>lvgl_c&#45;&gt;dummy</title>
<path fill="none" stroke="#666666" stroke-width="1.2" d="M243.6,-101.16C251.91,-96.51 260.45,-91.27 268,-85.75 276.73,-79.36 285.5,-71.57 293.24,-64.09"/>
<polygon fill="#666666" stroke="#666666" stroke-width="1.2" points="295.28,-67 299.9,-57.46 290.34,-62.04 295.28,-67"/>
</g>
</g>
</svg>
